<mxfile host="app.diagrams.net" modified="2024-03-04T05:35:35.830Z" agent="Mozilla/5.0 (Macintosh; Intel Mac OS X 10_15_7) AppleWebKit/537.36 (KHTML, like Gecko) Chrome/122.0.0.0 Safari/537.36" version="24.0.0" etag="uDlS7qQhBM9thEamq9f8" type="github">
  <diagram name="第 1 页" id="1bkn0Ovkejx9ZDLXdHxm">
    <mxGraphModel>
      <root>
        <mxCell id="0" />
        <mxCell id="1" parent="0" />
      </root>
    </mxGraphModel>
  </diagram>
</mxfile>
